<?xml version="1.0" encoding="UTF-8"?>
<svg xmlns="http://www.w3.org/2000/svg" viewBox="0 0 64 64" width="64" height="64">
  <circle cx="32" cy="32" r="30" fill="#FFCC80" />
  <circle cx="32" cy="32" r="26" fill="#FFE0B2" />
  <path d="M16,28 C16,20 22,16 32,16 C42,16 48,20 48,28 C48,36 42,40 32,40 C22,40 16,36 16,28 Z" fill="#FFA726" />
  <path d="M20,28 C20,24 24,20 32,20 C40,20 44,24 44,28 C44,32 40,36 32,36 C24,36 20,32 20,28 Z" fill="#FFCC80" />
  <circle cx="24" cy="26" r="2" fill="#FFFFFF" />
  <circle cx="30" cy="24" r="2" fill="#FFFFFF" />
  <circle cx="36" cy="28" r="2" fill="#FFFFFF" />
</svg> 