<?xml version="1.0" encoding="UTF-8"?>
<svg xmlns="http://www.w3.org/2000/svg" viewBox="0 0 64 64" width="64" height="64">
  <circle cx="32" cy="32" r="30" fill="#FFEB3B" />
  <circle cx="32" cy="32" r="26" fill="#FFF9C4" />
  <circle cx="32" cy="36" r="18" fill="#F44336" />
  <path d="M32,18 C32,18 28,22 28,26 C28,30 32,34 32,34 C32,34 36,30 36,26 C36,22 32,18 32,18 Z" fill="#4CAF50" />
  <path d="M34,24 C34,24 38,20 42,22 C46,24 46,30 46,30 C46,30 42,28 40,24 C38,20 34,24 34,24 Z" fill="#4CAF50" />
  <path d="M30,24 C30,24 26,20 22,22 C18,24 18,30 18,30 C18,30 22,28 24,24 C26,20 30,24 30,24 Z" fill="#4CAF50" />
</svg> 