<?xml version="1.0" encoding="UTF-8"?>
<svg xmlns="http://www.w3.org/2000/svg" viewBox="0 0 64 64" width="64" height="64">
  <circle cx="32" cy="32" r="30" fill="#FFCDD2" />
  <circle cx="32" cy="32" r="26" fill="#FFEBEE" />
  <path d="M18,26 C18,26 20,20 26,18 C32,16 38,16 44,22 C50,28 48,36 44,40 C40,44 32,46 26,44 C20,42 18,38 18,38 Z" fill="#EF5350" />
  <path d="M22,28 C22,28 24,24 28,22 C32,20 36,20 40,24 C44,28 42,34 40,36 C38,38 32,40 28,38 C24,36 22,34 22,34 Z" fill="#EF9A9A" />
  <circle cx="26" cy="28" r="2" fill="#FFFFFF" />
  <circle cx="30" cy="32" r="2" fill="#FFFFFF" />
  <circle cx="34" cy="28" r="2" fill="#FFFFFF" />
</svg> 