<?xml version="1.0" encoding="UTF-8"?>
<svg xmlns="http://www.w3.org/2000/svg" viewBox="0 0 64 64" width="64" height="64">
  <circle cx="32" cy="32" r="30" fill="#8BC34A" />
  <circle cx="32" cy="32" r="26" fill="#C5E1A5" />
  <path d="M24,22 C24,18 28,16 32,16 C36,16 40,18 40,22 C40,26 36,28 32,28 C28,28 24,26 24,22 Z" fill="#4CAF50" />
  <rect x="30" y="28" width="4" height="20" fill="#795548" />
  <path d="M20,36 C20,32 24,30 28,30 C32,30 36,32 36,36 C36,40 32,42 28,42 C24,42 20,40 20,36 Z" fill="#4CAF50" />
  <path d="M28,44 C28,40 32,38 36,38 C40,38 44,40 44,44 C44,48 40,50 36,50 C32,50 28,48 28,44 Z" fill="#4CAF50" />
</svg> 